<svg xmlns="http://www.w3.org/2000/svg" viewBox="0 0 304.02 368.98"><defs><style>.cls-1{fill:#fff;}.cls-2{fill:#ec690c;}.cls-3{fill:#1d1d1b;}.cls-4{fill:#f6f6f6;}</style></defs><g id="Livello_2" data-name="Livello 2"><g id="v1"><rect class="cls-1" x="2" y="2" width="300" height="300" rx="4"/><path class="cls-2" d="M298,304H6a6,6,0,0,1-6-6V6A6,6,0,0,1,6,0H298a6,6,0,0,1,6,6V298A6,6,0,0,1,298,304ZM6,4A2,2,0,0,0,4,6V298a2,2,0,0,0,2,2H298a2,2,0,0,0,2-2V6a2,2,0,0,0-2-2Z"/><rect class="cls-2" x="11.96" y="12" width="280" height="280" rx="4"/><path class="cls-2" d="M288,293.05H16A5.06,5.06,0,0,1,10.91,288V16A5.06,5.06,0,0,1,16,11H288A5.06,5.06,0,0,1,293,16V288A5.06,5.06,0,0,1,288,293.05ZM16,13.05A3,3,0,0,0,13,16V288A3,3,0,0,0,16,291H288a3,3,0,0,0,3-2.95V16a3,3,0,0,0-3-2.95Z"/><path class="cls-3" d="M63.15,320.6H45.77a1.35,1.35,0,0,0-1,.4l-6.18,6.18a1.37,1.37,0,0,0-.4,1v33.13a1.39,1.39,0,0,0,.4,1L45,368.58a1.4,1.4,0,0,0,1,.39H63.25a1.38,1.38,0,0,0,1-.39l6.18-6.18a1.41,1.41,0,0,0,.4-1V328.24a1.37,1.37,0,0,0-.4-1L64.11,321A1.33,1.33,0,0,0,63.15,320.6Zm-1.39,39.1-.36.36a1.37,1.37,0,0,1-1,.4H48.75a1.41,1.41,0,0,1-1-.4l-.52-.53a1.37,1.37,0,0,1-.4-1V330.84a1.37,1.37,0,0,1,.4-1l.36-.36a1.37,1.37,0,0,1,1-.4H60.34a1.4,1.4,0,0,1,1,.4l.45.46a1.33,1.33,0,0,1,.4,1v27.8A1.35,1.35,0,0,1,61.76,359.7Z"/><path class="cls-3" d="M8.63,330.48v7.84A1.36,1.36,0,0,0,10,339.68H25a1.37,1.37,0,0,1,1,.4l6.18,6.17a1.4,1.4,0,0,1,.39,1v14.22a1.38,1.38,0,0,1-.39,1l-5.53,5.52-.65.66a1.41,1.41,0,0,1-1,.4H2.38A1.36,1.36,0,0,1,1,367.61v-5.79a1.36,1.36,0,0,1,1.36-1.36H22.56a1.37,1.37,0,0,0,1.37-1.37v-9.53a1.36,1.36,0,0,0-1.37-1.36H7.48a1.33,1.33,0,0,1-1-.4L0,341.31V328.14a1.35,1.35,0,0,1,.4-1L6.58,321l.17-.15a1.4,1.4,0,0,1,.79-.25H30.17A1.36,1.36,0,0,1,31.53,322v5.8a1.36,1.36,0,0,1-1.36,1.36H10A1.36,1.36,0,0,0,8.63,330.48Z"/><path class="cls-3" d="M100.89,360.46H86.67a1.36,1.36,0,0,1-1.36-1.37V322A1.36,1.36,0,0,0,84,320.6H78A1.36,1.36,0,0,0,76.68,322v45.65A1.36,1.36,0,0,0,78,369h22.85a1.36,1.36,0,0,0,1.37-1.36v-5.79A1.36,1.36,0,0,0,100.89,360.46Z"/><path class="cls-3" d="M131,322v36.77a1.4,1.4,0,0,1-.39,1l-.36.36a1.41,1.41,0,0,1-1,.4H117.54a1.39,1.39,0,0,1-1-.4l-.52-.53a1.33,1.33,0,0,1-.4-1V322a1.36,1.36,0,0,0-1.37-1.36h-5.9A1.36,1.36,0,0,0,107,322v39.31a1.35,1.35,0,0,0,.4,1l6.34,6.35a1.38,1.38,0,0,0,1,.39H132a1.4,1.4,0,0,0,1-.39l6.17-6.18a1.37,1.37,0,0,0,.4-1V322a1.36,1.36,0,0,0-1.36-1.36h-5.9A1.36,1.36,0,0,0,131,322Z"/><path class="cls-3" d="M188.58,367.61V322a1.36,1.36,0,0,0-1.36-1.36h-5.9A1.36,1.36,0,0,0,180,322v45.65a1.36,1.36,0,0,0,1.37,1.36h5.9A1.36,1.36,0,0,0,188.58,367.61Z"/><path class="cls-3" d="M174.9,322v5.91a1.36,1.36,0,0,1-1.36,1.36h-7.7a1.36,1.36,0,0,0-1.37,1.36v37a1.36,1.36,0,0,1-1.36,1.36h-5.92a1.36,1.36,0,0,1-1.36-1.36v-37a1.36,1.36,0,0,0-1.36-1.36h-7.7a1.36,1.36,0,0,1-1.36-1.36V322a1.36,1.36,0,0,1,1.36-1.36h26.77A1.36,1.36,0,0,1,174.9,322Z"/><path class="cls-3" d="M266,322v45.65a1.36,1.36,0,0,1-1.37,1.36h-9.42a1.34,1.34,0,0,1-1.28-.89l-11-30.22a.4.4,0,0,0-.77.14v29.61a1.36,1.36,0,0,1-1.36,1.36h-5.91a1.36,1.36,0,0,1-1.36-1.36V322a1.36,1.36,0,0,1,1.36-1.36h9.43a1.37,1.37,0,0,1,1.28.9l11.24,30.87a.27.27,0,0,0,.53-.1V322a1.36,1.36,0,0,1,1.36-1.36h5.9A1.36,1.36,0,0,1,266,322Z"/><path class="cls-2" d="M220.14,320.6H202.77a1.33,1.33,0,0,0-1,.4l-6.18,6.18a1.33,1.33,0,0,0-.4,1v33.13a1.35,1.35,0,0,0,.4,1l6.34,6.35a1.38,1.38,0,0,0,1,.39h17.31a1.4,1.4,0,0,0,1-.39l6.17-6.18a1.37,1.37,0,0,0,.4-1V328.24a1.33,1.33,0,0,0-.4-1L221.11,321A1.37,1.37,0,0,0,220.14,320.6Zm-1.38,39.1-.36.36a1.39,1.39,0,0,1-1,.4h-11.7a1.37,1.37,0,0,1-1-.4l-.52-.53a1.33,1.33,0,0,1-.4-1V330.84a1.33,1.33,0,0,1,.4-1l.35-.36a1.4,1.4,0,0,1,1-.4h11.76a1.37,1.37,0,0,1,1,.4l.46.46a1.37,1.37,0,0,1,.4,1v27.8A1.39,1.39,0,0,1,218.76,359.7Z"/><path class="cls-3" d="M280.1,330.48v7.84a1.36,1.36,0,0,0,1.36,1.36h15a1.37,1.37,0,0,1,1,.4l6.18,6.17a1.4,1.4,0,0,1,.39,1v14.22a1.38,1.38,0,0,1-.39,1l-5.53,5.52-.65.66a1.4,1.4,0,0,1-1,.4H273.85a1.36,1.36,0,0,1-1.36-1.37v-5.79a1.37,1.37,0,0,1,1.36-1.36H294a1.37,1.37,0,0,0,1.37-1.37v-9.53A1.36,1.36,0,0,0,294,348.2H279a1.33,1.33,0,0,1-1-.4l-6.52-6.49V328.14a1.35,1.35,0,0,1,.4-1l6.18-6.18.17-.15a1.4,1.4,0,0,1,.79-.25h22.63A1.36,1.36,0,0,1,303,322v5.8a1.36,1.36,0,0,1-1.36,1.36H281.46A1.36,1.36,0,0,0,280.1,330.48Z"/><path class="cls-4" d="M162,93.2,141,72.13a4.56,4.56,0,0,0-3.23-1.33H67.66a4.58,4.58,0,0,0-3.23,1.33L43.69,92.88a4.58,4.58,0,0,0-1.35,3.24V207.33a4.6,4.6,0,0,0,1.35,3.24L65,231.86a4.55,4.55,0,0,0,3.23,1.34h69.84a4.59,4.59,0,0,0,3.24-1.34L162,211.13a4.59,4.59,0,0,0,1.34-3.24V96.44A4.59,4.59,0,0,0,162,93.2ZM134.4,198.85a4.56,4.56,0,0,1-1.34,3.23l-1.17,1.18a4.59,4.59,0,0,1-3.24,1.34h-51a4.55,4.55,0,0,1-3.23-1.34l-1.75-1.75a4.56,4.56,0,0,1-1.34-3.23V105a4.57,4.57,0,0,1,1.34-3.24l1-1a4.53,4.53,0,0,1,3.23-1.35h51.38a4.59,4.59,0,0,1,3.24,1.34l1.5,1.52a4.56,4.56,0,0,1,1.34,3.23Z"/><path class="cls-2" d="M138.06,235.2H68.22a6.63,6.63,0,0,1-4.65-1.92L42.27,212a6.61,6.61,0,0,1-1.93-4.65V96.12a6.57,6.57,0,0,1,1.93-4.65L63,70.72a6.63,6.63,0,0,1,4.65-1.92h70.07a6.53,6.53,0,0,1,4.65,1.92l21.08,21.07a6.63,6.63,0,0,1,1.92,4.65V207.89a6.63,6.63,0,0,1-1.92,4.65l-20.75,20.74A6.63,6.63,0,0,1,138.06,235.2ZM67.66,72.8a2.58,2.58,0,0,0-1.82.75L45.1,94.3a2.57,2.57,0,0,0-.76,1.82V207.33a2.61,2.61,0,0,0,.76,1.82l21.3,21.3a2.58,2.58,0,0,0,1.82.75h69.84a2.58,2.58,0,0,0,1.82-.75l20.75-20.74a2.58,2.58,0,0,0,.75-1.82V96.44a2.58,2.58,0,0,0-.75-1.82L139.55,73.55a2.52,2.52,0,0,0-1.82-.75Zm61,133.8h-51A6.61,6.61,0,0,1,73,204.67l-1.75-1.74a6.65,6.65,0,0,1-1.92-4.65V105a6.61,6.61,0,0,1,1.92-4.65l1.06-1.06a6.56,6.56,0,0,1,4.64-1.93h51.38A6.63,6.63,0,0,1,133,99.32l1.51,1.53a6.6,6.6,0,0,1,1.92,4.64v93.36a6.65,6.65,0,0,1-1.92,4.65l-1.18,1.17A6.6,6.6,0,0,1,128.65,206.6ZM76.94,101.4a2.58,2.58,0,0,0-1.81.75l-1.06,1.07a2.56,2.56,0,0,0-.75,1.82v93.24a2.58,2.58,0,0,0,.75,1.82l1.75,1.75a2.62,2.62,0,0,0,1.82.75h51a2.62,2.62,0,0,0,1.82-.75l1.18-1.18a2.58,2.58,0,0,0,.75-1.82V105.49a2.58,2.58,0,0,0-.75-1.82l-1.51-1.52a2.58,2.58,0,0,0-1.82-.75Z"/><path class="cls-4" d="M138.06,239.2H68.22a10.64,10.64,0,0,1-7.48-3.1L39.45,214.81a10.64,10.64,0,0,1-3.11-7.48V96.12a10.48,10.48,0,0,1,3.11-7.48L60.18,67.89a10.69,10.69,0,0,1,7.48-3.09h70.07a10.53,10.53,0,0,1,7.48,3.09L166.29,89a10.67,10.67,0,0,1,3.09,7.48V207.89a10.69,10.69,0,0,1-3.09,7.48l-20.75,20.74A10.67,10.67,0,0,1,138.06,239.2ZM67.66,68.8A6.63,6.63,0,0,0,63,70.72L42.28,91.47a6.54,6.54,0,0,0-1.94,4.65V207.33A6.63,6.63,0,0,0,42.27,212l21.3,21.3a6.63,6.63,0,0,0,4.65,1.92h69.84a6.63,6.63,0,0,0,4.65-1.92l20.75-20.74a6.63,6.63,0,0,0,1.92-4.65V96.44a6.63,6.63,0,0,0-1.92-4.65L142.38,70.72a6.53,6.53,0,0,0-4.65-1.92Zm61,133.8h-51a2.59,2.59,0,0,1-1.82-.76l-1.75-1.74a2.6,2.6,0,0,1-.75-1.82V105a2.58,2.58,0,0,1,.75-1.82l1.07-1.08a2.55,2.55,0,0,1,1.8-.74h51.38a2.57,2.57,0,0,1,1.81.74l1.53,1.54a2.57,2.57,0,0,1,.74,1.81v93.36a2.58,2.58,0,0,1-.75,1.82l-1.18,1.18A2.62,2.62,0,0,1,128.65,202.6Zm-50.42-4h49.83l.34-.34V106.08l-.67-.68H77.54l-.22.22v92.07Zm50.59-.76Zm0-91.35h0ZM78,105v0Z"/><path class="cls-4" d="M261.69,209.17v19.46a4.58,4.58,0,0,1-4.58,4.57h-56a4.57,4.57,0,0,1-4.57-4.57V209.17a4.57,4.57,0,0,1,4.57-4.57H210a4.57,4.57,0,0,0,4.57-4.57V104A4.57,4.57,0,0,0,210,99.4H184.13a4.57,4.57,0,0,1-4.57-4.57V75.36a4.57,4.57,0,0,1,4.57-4.57H239a4.58,4.58,0,0,1,4.58,4.57V200a4.57,4.57,0,0,0,4.57,4.57h8.93A4.58,4.58,0,0,1,261.69,209.17Z"/><path class="cls-2" d="M257.11,235.2h-56a6.57,6.57,0,0,1-6.57-6.57V209.17a6.57,6.57,0,0,1,6.57-6.57H210a2.58,2.58,0,0,0,2.57-2.58V104A2.57,2.57,0,0,0,210,101.4H184.13a6.58,6.58,0,0,1-6.57-6.57V75.36a6.58,6.58,0,0,1,6.57-6.57H239a6.58,6.58,0,0,1,6.58,6.57V200a2.58,2.58,0,0,0,2.57,2.58h8.93a6.58,6.58,0,0,1,6.58,6.57v19.46A6.58,6.58,0,0,1,257.11,235.2Zm-56-28.6a2.57,2.57,0,0,0-2.57,2.57v19.46a2.57,2.57,0,0,0,2.57,2.57h56a2.58,2.58,0,0,0,2.58-2.57V209.17a2.58,2.58,0,0,0-2.58-2.57h-8.93a6.58,6.58,0,0,1-6.57-6.58V75.36A2.58,2.58,0,0,0,239,72.79h-54.9a2.58,2.58,0,0,0-2.57,2.57V94.83a2.58,2.58,0,0,0,2.57,2.57H210a6.58,6.58,0,0,1,6.57,6.57V200A6.58,6.58,0,0,1,210,206.6Z"/><path class="cls-4" d="M257.11,239.2h-56a10.58,10.58,0,0,1-10.57-10.57V209.17a10.58,10.58,0,0,1,10.57-10.57h7.5V105.4H184.13a10.58,10.58,0,0,1-10.57-10.57V75.36a10.58,10.58,0,0,1,10.57-10.57H239a10.59,10.59,0,0,1,10.58,10.57V198.6h7.5a10.59,10.59,0,0,1,10.58,10.57v19.46A10.59,10.59,0,0,1,257.11,239.2Zm-56-36.6a6.57,6.57,0,0,0-6.57,6.57v19.46a6.57,6.57,0,0,0,6.57,6.57h56a6.58,6.58,0,0,0,6.58-6.57V209.17a6.58,6.58,0,0,0-6.58-6.57h-8.93a2.58,2.58,0,0,1-2.57-2.58V75.36A6.58,6.58,0,0,0,239,68.79h-54.9a6.58,6.58,0,0,0-6.57,6.57V94.83a6.58,6.58,0,0,0,6.57,6.57H210a2.57,2.57,0,0,1,2.57,2.57V200A2.58,2.58,0,0,1,210,202.6Z"/></g></g></svg>