<?xml version="1.0" encoding="utf-8"?>
<svg xmlns="http://www.w3.org/2000/svg" data-name="Layer 1" viewBox="0 0 74.48 49.61">
  <path d="M26.02 32.92h-4.64V21.28l-3.03 11.64h-3.17l-3.12-11.64v11.64H8.33V16.64h6.52l2.37 8.64 2.25-8.64h6.57v16.28ZM28.88 16.64h6.3c2.68 0 4.52.71 6 2.29 1.42 1.51 2.17 3.54 2.17 5.81 0 4.86-3.2 8.18-7.86 8.18h-6.61V16.64Zm6.3 12.55c1.73 0 2.95-1.83 2.95-4.42 0-1.17-.24-2.25-.73-3.1-.51-.9-1.24-1.34-2.22-1.34h-1.29v8.86h1.29ZM50.53 32.92h-5.05V16.64h6.93c2.51 0 3.91.37 5.1 1.29 1.12.9 1.81 2.34 1.81 3.91 0 3.1-2.37 5.17-5.96 5.17h-2.83v5.91Zm1.61-9.4c1.51 0 2.2-.51 2.2-1.61 0-1.03-.68-1.54-2.05-1.54h-1.81v3.15h1.66ZM65.98 32.92h-5V16.64h5v16.28Z"/>
  <path d="M1.93 36.32H.71V11.51L19.5.71l18.92 10.77-1.15.74L19.5 2.11 1.93 12.22v24.1z"/>
  <path d="m3.74 14.2.01-1.41 15.11-8.7-.02 1.48-15.1 8.63zM72.55 13.29h1.22v24.8L54.98 48.9 36.06 38.13l1.15-.74 17.77 10.1 17.57-10.1v-24.1z"/>
  <path d="m70.74 35.4-.01 1.41-15.11 8.7.02-1.47 15.1-8.64z"/>
</svg>